<?xml version="1.0" encoding="UTF-8"?>
<svg xmlns="http://www.w3.org/2000/svg" width="1024" height="1024" viewBox="0 0 270.93333 270.93333">
  <path fill="#0697f7" d="m132.28477 258.87588c-30.94592-13.89743-62.697272-30.95044-82.489802-59.47612-11.08279-15.96528-15.36299-35.68974-14.27837-54.91329-.064-31.0992-.019-62.198567-.0324-93.297844 3.00676-8.934328 14.21968-7.948096 21.62266-10.685468 26.08793-6.36214 51.189432-16.127446 75.367652-27.72515 10.19691-.82272 18.43858 7.05526 27.85197 9.851673 22.24792 9.543852 45.6027 16.142461 69.07551 21.834983 6.71152 2.388333 6.25033 9.348465 6.01503 14.980058-.17199 34.105116.73724 68.236748-.4971 102.320098-2.64026 30.47683-24.16218 55.42194-48.76945 71.70487-15.21864 10.00849-31.2244 19.30886-48.37103 25.53424-1.81078.39189-3.70173.31875-5.49471-.12805z"/>
  <path fill="#fff" d="m108.4263 196.50947c-2.6756-.9272-2.78855-1.37028-2.7905-10.94463l-.00095-7.92158h-7.932648c-9.776757 0-10.137024-.0764-11.468665-2.43741-.742741-1.31677-.810681-96.833815-.06968-98.237485.547264-1.03694 1.480201-1.88646 2.5063-2.28225 1.513787-.58388 92.969133-.45839 94.082503.12916 2.5539 1.34757 2.58526 1.49123 2.58526 11.831854 0 10.879084.47716 9.288084-4.28255 14.279681-1.93443 2.02866-6.14749 6.50082-9.36243 9.93815-7.34543 7.85359-7.32801 7.83632-8.14795 8.08114-.47871.14294-2.45059.19971-6.93648.19971h-6.26787l-.0505 6.45911c-.0639 8.12556.39596 6.92866-4.67888 12.17932-6.42143 6.64395-5.45359 6.83935-15.45526-3.12034-8.72672-8.69001-8.01839-7.61416-8.02397-12.18698l-.004-3.24987h-8.36839-8.3684l.00095 3.4936c.00059 1.9215.0266 5.55411.0578 8.07249.0643 5.21049.015 5.4577-1.35368 6.67221-5.781688 5.13351-6.017558 5.53646-6.017558 10.27926 0 4.96993-1.67006 2.79034 14.396698 18.7896 24.59868 24.49526 23.1898 23.17598 25.21897 23.61492 3.93847.85198 5.49033.10552 10.45847-5.03108 6.20939-6.41985 14.52668-14.95069 22.96651-23.55621 4.42387-4.51075 8.96325-9.14066 10.08748-10.28875 2.04411-2.08743 2.04411-2.08743 2.74619-2.03611 1.47213.10773 1.37806-.73761 1.42923 12.84436.0641 17.01347 1.17875 15.45802-11.12764 15.52832l-8.32049.0474-.048 7.83339c-.0576 9.42549-.0837 9.53783-2.48531 10.81403-1.0889.5786-53.33396.77334-54.97427.20496zm29.76841-17.22738c-.80107-.36378-29.21225-28.78186-29.68503-29.69226-1.13687-2.18914-.70061-3.0611 3.84977-7.69506 4.06957-4.14429 4.69312-4.6221 6.02342-4.61523 1.81831.009.68104-1.03648 18.12508 16.66751 2.18792 2.22056 2.53392 2.41517 3.85921 2.17107.69255-.12751.60064-.0386 8.90109-8.61736 5.9039-6.10178 9.67551-9.97378 15.27414-15.68059 2.14809-2.1896 6.86479-7.01461 10.48154-10.72222 19.51478-20.00524 16.9437-18.71013 23.64576-11.91087 4.06873 4.12768 4.29918 4.45912 4.29589 6.17889-.004 2.11616 1.89149.0183-19.49403 21.57275-4.34492 4.37919-12.24417 12.38605-17.55388 17.79301-5.30971 5.40698-11.48984 11.69547-13.73363 13.97442-2.24376 2.27896-5.39087 5.4851-6.99358 7.12477-3.76614 3.853-4.89002 4.40742-6.99575 3.45117z"/>
</svg>
