<?xml version="1.0" encoding="UTF-8" standalone="no"?>
<svg
   version="1.1"
   viewBox="0 0 960 325"
   xml:space="preserve"
   id="svg7"
   width="960"
   height="325"
   xmlns="http://www.w3.org/2000/svg"
   xmlns:svg="http://www.w3.org/2000/svg"><defs
     id="defs1"><style
       id="style1">.cls-1{fill:#4D77CF;}.cls-2{fill:#4DABCF;}</style></defs><style
     type="text/css"
     id="style7">.st0{fill-rule:evenodd;clip-rule:evenodd;fill:#EC6F59;} .st1{fill-rule:evenodd;clip-rule:evenodd;fill:#FAD15C;}</style><path
     style="fill:#0697f7;fill-opacity:1;stroke-width:0.99338"
     d="M 146.62095,277.10342 C 117.8572,264.18597 88.34481,248.33546 69.94796,221.82129 59.64668,206.98179 55.6683,188.64822 56.67644,170.78022 c -0.0595,-28.90623 -0.0176,-57.8126 -0.0301,-86.718908 2.79474,-8.30432 13.21697,-7.38763 20.09793,-9.93198 24.24833,-5.91351 47.57978,-14.99022 70.05307,-25.77009 9.47787,-0.76471 17.13837,6.55775 25.88798,9.15697 20.67909,8.87087 42.387,15.00417 64.20463,20.29528 6.23824,2.21992 5.80957,8.68926 5.59087,13.92373 -0.15986,31.700188 0.68525,63.425018 -0.46205,95.104958 -2.45408,28.32775 -22.45837,51.51384 -45.33046,66.64857 -14.14548,9.30274 -29.02259,17.94729 -44.96012,23.73369 -1.68309,0.36426 -3.4407,0.29627 -5.10724,-0.11902 z"
     id="path4-3" /><g
     id="layer1"
     transform="matrix(0.92948455,0,0,0.92948455,23.172452,36.482272)"><path
       style="fill:#ffffff;fill-opacity:1;stroke-width:0.614147"
       d="m 108.4263,196.50947 c -2.6756,-0.9272 -2.78855,-1.37028 -2.7905,-10.94463 l -9.5e-4,-7.92158 h -7.932648 c -9.776757,0 -10.137024,-0.0764 -11.468665,-2.43741 -0.742741,-1.31677 -0.810681,-96.833815 -0.06968,-98.237485 0.547264,-1.03694 1.480201,-1.88646 2.5063,-2.28225 1.513787,-0.58388 92.969133,-0.45839 94.082503,0.12916 2.5539,1.34757 2.58526,1.49123 2.58526,11.831854 0,10.879084 0.47716,9.288084 -4.28255,14.279681 -1.93443,2.02866 -6.14749,6.50082 -9.36243,9.93815 -7.34543,7.85359 -7.32801,7.83632 -8.14795,8.08114 -0.47871,0.14294 -2.45059,0.19971 -6.93648,0.19971 h -6.26787 l -0.0505,6.45911 c -0.0639,8.12556 0.39596,6.92866 -4.67888,12.17932 -6.42143,6.64395 -5.45359,6.83935 -15.45526,-3.12034 -8.72672,-8.69001 -8.01839,-7.61416 -8.02397,-12.18698 l -0.004,-3.24987 h -8.36839 -8.3684 l 9.5e-4,3.4936 c 5.9e-4,1.9215 0.0266,5.55411 0.0578,8.07249 0.0643,5.21049 0.015,5.4577 -1.35368,6.67221 -5.781688,5.13351 -6.017558,5.53646 -6.017558,10.27926 0,4.96993 -1.67006,2.79034 14.396698,18.7896 24.59868,24.49526 23.1898,23.17598 25.21897,23.61492 3.93847,0.85198 5.49033,0.10552 10.45847,-5.03108 6.20939,-6.41985 14.52668,-14.95069 22.96651,-23.55621 4.42387,-4.51075 8.96325,-9.14066 10.08748,-10.28875 2.04411,-2.08743 2.04411,-2.08743 2.74619,-2.03611 1.47213,0.10773 1.37806,-0.73761 1.42923,12.84436 0.0641,17.01347 1.17875,15.45802 -11.12764,15.52832 l -8.32049,0.0474 -0.048,7.83339 c -0.0576,9.42549 -0.0837,9.53783 -2.48531,10.81403 -1.0889,0.5786 -53.33396,0.77334 -54.97427,0.20496 z m 29.76841,-17.22738 c -0.80107,-0.36378 -29.21225,-28.78186 -29.68503,-29.69226 -1.13687,-2.18914 -0.70061,-3.0611 3.84977,-7.69506 4.06957,-4.14429 4.69312,-4.6221 6.02342,-4.61523 1.81831,0.009 0.68104,-1.03648 18.12508,16.66751 2.18792,2.22056 2.53392,2.41517 3.85921,2.17107 0.69255,-0.12751 0.60064,-0.0386 8.90109,-8.61736 5.9039,-6.10178 9.67551,-9.97378 15.27414,-15.68059 2.14809,-2.1896 6.86479,-7.01461 10.48154,-10.72222 19.51478,-20.00524 16.9437,-18.71013 23.64576,-11.91087 4.06873,4.12768 4.29918,4.45912 4.29589,6.17889 -0.004,2.11616 1.89149,0.0183 -19.49403,21.57275 -4.34492,4.37919 -12.24417,12.38605 -17.55388,17.79301 -5.30971,5.40698 -11.48984,11.69547 -13.73363,13.97442 -2.24376,2.27896 -5.39087,5.4851 -6.99358,7.12477 -3.76614,3.853 -4.89002,4.40742 -6.99575,3.45117 z"
       id="path2-5" /></g><path
     d="m 368.35225,113.69559 v 18.07052 h -31.69747 v 85.61278 H 318.58426 V 131.76611 H 286.8868 v -18.07052 z m 4.75161,103.6833 -0.0741,-74.0595 h 18.07052 l 0.0741,6.59129 q 3.77703,-3.99921 9.03526,-6.29505 5.25822,-2.36991 11.3311,-2.36991 4.07328,0 8.14655,1.18496 l -7.10971,18.21863 q -2.81426,-1.11089 -5.62853,-1.11089 -4.36951,0 -7.99842,2.14773 -3.55486,2.07366 -5.70258,5.70258 -2.07367,3.55485 -2.07367,7.92436 v 42.0658 z m 52.07523,-27.40201 v -46.65749 h 18.07052 v 41.91768 q 0,4.36951 2.14773,7.99842 2.14772,3.55486 5.70258,5.70259 3.62891,2.07366 7.92437,2.07366 4.44357,0 7.99842,-2.07366 3.55486,-2.14773 5.70258,-5.70259 2.14773,-3.62891 2.14773,-7.99842 v -41.91768 h 18.07052 l 0.0741,74.0595 h -18.07052 l -0.0741,-6.73941 q -3.85109,3.99921 -9.10932,6.36911 -5.25822,2.29585 -11.25704,2.29585 -8.07249,0 -14.73784,-3.92516 -6.66536,-3.99921 -10.66457,-10.5905 -3.92516,-6.66536 -3.92516,-14.8119 z m 113.65948,29.32756 q -10.22021,0 -18.66299,-5.25823 -8.36873,-5.25822 -13.40477,-14.14536 -4.96199,-8.88714 -4.96199,-19.62577 0,-8.07249 2.88832,-15.10814 2.88832,-7.10971 7.92437,-12.44199 5.1101,-5.40635 11.84952,-8.44279 6.73941,-3.03644 14.36754,-3.03644 8.66496,0 15.84873,3.70298 7.25784,3.62891 12.29388,9.99803 5.03605,6.36912 7.33189,14.51566 2.29585,8.14655 1.03683,17.03369 h -54.13749 q 1.03683,4.14733 3.40674,7.48001 2.3699,3.25862 5.99882,5.25822 3.62891,1.92555 8.2206,1.99961 4.73981,0.0741 8.5909,-2.22179 3.92516,-2.3699 6.51724,-6.36911 l 18.44081,4.29545 q -4.51762,9.84991 -13.47882,16.14497 -8.9612,6.221 -20.07013,6.221 z m -18.21864,-46.36125 h 36.43728 q -0.81466,-4.44357 -3.4808,-7.99843 -2.59208,-3.62891 -6.44318,-5.77664 -3.85109,-2.14772 -8.29466,-2.14772 -4.44357,0 -8.2206,2.14772 -3.77704,2.07367 -6.44318,5.70258 -2.59208,3.55486 -3.55486,8.07249 z m 109.61943,46.36125 q -12.442,0 -21.84755,-6.07288 -9.3315,-6.07288 -14.51566,-16.29309 -5.18417,-10.29427 -5.18417,-22.81033 v -60.43255 h 18.07052 v 60.43255 q 0,7.40595 2.7402,13.62695 2.81426,6.14694 7.99843,9.84991 5.25822,3.62892 12.73823,3.62892 7.55407,0 12.73823,-3.62892 5.18417,-3.70297 7.85031,-9.84991 2.7402,-6.221 2.7402,-13.62695 v -60.43255 h 18.07052 v 60.43255 q 0,9.40556 -2.96238,17.62616 -2.96238,8.14655 -8.44278,14.36755 -5.4804,6.22099 -13.10853,9.70179 -7.55407,3.4808 -16.88557,3.4808 z m 100.28803,0 q -12.442,0 -21.84756,-6.07288 -9.33149,-6.07288 -14.51566,-16.29309 -5.18416,-10.29427 -5.18416,-22.81033 v -60.43255 h 18.07051 v 60.43255 q 0,7.40595 2.74021,13.62695 2.81426,6.14694 7.99842,9.84991 5.25823,3.62892 12.73824,3.62892 7.55406,0 12.73823,-3.62892 5.18417,-3.70297 7.85031,-9.84991 2.7402,-6.221 2.7402,-13.62695 v -60.43255 h 18.07052 v 60.43255 q 0,9.40556 -2.96238,17.62616 -2.96238,8.14655 -8.44279,14.36755 -5.4804,6.22099 -13.10853,9.70179 -7.55407,3.4808 -16.88556,3.4808 z m 59.25912,-1.92555 v -103.6833 h 18.07052 v 103.6833 z m 37.63353,0 v -103.6833 h 34.36361 q 10.73862,0 20.07012,4.07327 9.40556,3.99921 16.51527,11.18299 7.18377,7.10971 11.18299,16.51526 4.07327,9.3315 4.07327,20.07013 0,10.73863 -4.07327,20.14418 -3.99922,9.3315 -11.18299,16.51527 -7.10971,7.10972 -16.51527,11.18299 -9.3315,3.99921 -20.07012,3.99921 z m 18.07052,-18.07052 h 16.29309 q 6.88753,0 12.96041,-2.59208 6.14694,-2.66614 10.81269,-7.25783 4.66575,-4.66575 7.33189,-10.73863 2.66614,-6.14694 2.66614,-13.18259 0,-7.03565 -2.66614,-13.10853 -2.66614,-6.07288 -7.33189,-10.73863 -4.66575,-4.66575 -10.73863,-7.25783 -6.07288,-2.66614 -13.03447,-2.66614 h -16.29309 z"
     id="text7"
     style="font-size:148.119px;line-height:1.19;font-family:Urbanist;-inkscape-font-specification:'Urbanist, @wght=700';font-variation-settings:'wght' 700;letter-spacing:-0.43295px;word-spacing:0.744675px;fill:#0697f7;stroke-width:8.48583;stroke-linecap:round;stroke-linejoin:round;paint-order:markers stroke fill"
     aria-label="TrueUUID" /></svg>
